# xmcd
#
# Track frame offsets: 
#        150
#        19144
#        35998
#        54410
#        85299
#        102713
#        120754
#        148419
#        185729
#        200134
#        217138
#        241343
#        271444
#        296498
#
# Disc length: 4100 seconds
#
# Revision: 0
# Processed by: cddbd v1.5.2PL0 Copyright (c) Steve Scherf et al.
# Submitted via: ExactAudioCopy v0.95b4
#
DISCID=e510020e
DTITLE=Otis Grand - Hipster Blues
DYEAR=2006
DGENRE=Blues
TTITLE0=1.Three Time Loser
TTITLE1=2.Slo'Mo'Shun
TTITLE2=3.I'm Glad To Go
TTITLE3=4.Never Raise My Hand
TTITLE4=5.Overdrive
TTITLE5=6.Mooki Sooki (Sleepwalk)
TTITLE6=7.Every Girl I See
TTITLE7=8.Satan's Blues
TTITLE8=9.Nutcracker Rock
TTITLE9=10.Gordon's Complaint
TTITLE10=11.Hipster Blues No.5
TTITLE11=12.Guitar Lovin' Blues
TTITLE12=13.The Memphis Push
TTITLE13=14.Sad Blues (For Peter Green)
EXTD=
EXTT0=
EXTT1=
EXTT2=
EXTT3=
EXTT4=
EXTT5=
EXTT6=
EXTT7=
EXTT8=
EXTT9=
EXTT10=
EXTT11=
EXTT12=
EXTT13=
PLAYORDER=
